<svg width="50" height="50" viewBox="0 0 50 50" fill="none" xmlns="http://www.w3.org/2000/svg">
<path d="M18.75 43.75H31.25M37.5 20.3125V23.4375C37.5 30.3125 31.875 35.9375 25 35.9375M25 35.9375C18.125 35.9375 12.5 30.3125 12.5 23.4375V20.3125M25 35.9375V43.75" stroke="white" stroke-width="3.125" stroke-linecap="round" stroke-linejoin="round"/>
<path d="M25 31.25C23.9688 31.2476 22.9486 31.038 21.9999 30.6337C21.0512 30.2294 20.1935 29.6387 19.4775 28.8965C18.0119 27.4183 17.1889 25.4214 17.1875 23.3398V12.5C17.1835 11.4729 17.3828 10.4552 17.774 9.50555C18.1652 8.55589 18.7405 7.69306 19.4668 6.9668C20.1931 6.24054 21.0559 5.66523 22.0056 5.27404C22.9552 4.88284 23.9729 4.68349 25 4.6875C29.3809 4.6875 32.8125 8.11914 32.8125 12.5V23.3398C32.8125 27.7012 29.3076 31.25 25 31.25Z" fill="white"/>
</svg>
