<svg width="100" height="100" viewBox="0 0 100 100" fill="none" xmlns="http://www.w3.org/2000/svg">
<path d="M37.5 87.5H62.5M75 40.625V46.875C75 60.625 63.75 71.875 50 71.875M50 71.875C36.25 71.875 25 60.625 25 46.875V40.625M50 71.875V87.5" stroke="white" stroke-width="3.125" stroke-linecap="round" stroke-linejoin="round"/>
<path d="M50.0001 62.5C47.9377 62.4952 45.8973 62.076 43.9999 61.2674C42.1026 60.4588 40.3871 59.2773 38.9552 57.793C36.0239 54.8367 34.3779 50.8429 34.3751 46.6797V25C34.3671 22.9458 34.7658 20.9104 35.5482 19.0111C36.3306 17.1118 37.4812 15.3861 38.9337 13.9336C40.3862 12.4811 42.1119 11.3305 44.0112 10.5481C45.9106 9.76568 47.946 9.36699 50.0001 9.375C58.7618 9.375 65.6251 16.2383 65.6251 25V46.6797C65.6251 55.4023 58.6154 62.5 50.0001 62.5Z" fill="white"/>
</svg>
